<svg width="196" height="36" viewBox="0 0 196 36" fill="none" xmlns="http://www.w3.org/2000/svg">
<path d="M0.103773 0.103775C0.0444742 0.148247 0 8.22772 0 18.0269V35.8758L0.326144 35.95C0.518866 35.9944 44.4594 36.0093 97.9915 35.9944L195.316 35.95L195.36 17.9676L195.39 0H97.7987C44.1184 0 0.148247 0.0444756 0.103773 0.103775ZM192.796 2.6981C192.84 2.89082 192.855 9.84362 192.84 18.1603L192.796 33.2815H114.966H37.136L37.0915 18.0269C37.0767 6.96762 37.1063 2.71292 37.2249 2.5795C37.3583 2.41643 50.2114 2.37196 115.055 2.37196H192.721L192.796 2.6981ZM19.9096 10.7776C20.3988 11.2371 20.2802 11.9487 19.1091 15.3436C19.0201 15.5808 18.8126 16.2183 18.6495 16.7519C18.4716 17.2856 18.1603 18.2492 17.9379 18.9015C17.7156 19.5538 17.1077 21.3476 16.6037 22.9042C16.0997 24.446 15.566 25.795 15.4325 25.8988C15.2991 26.0026 14.9433 26.0915 14.6468 26.0915C14.2317 26.0915 14.039 26.0026 13.787 25.6913C13.446 25.2465 13.446 25.0834 13.8463 23.7937C14.0538 23.1118 14.2614 22.4595 15.1953 19.7169C15.3732 19.1832 15.7735 17.9527 16.0848 16.9743C16.3962 15.9959 16.7223 14.9582 16.8409 14.6765C16.9447 14.3948 17.1522 13.787 17.2856 13.3423C17.4191 12.8975 17.6266 12.3045 17.7304 12.0377C17.849 11.7708 17.9379 11.4595 17.9379 11.3557C17.9379 11.2371 18.1455 10.9703 18.4123 10.7479C18.9164 10.318 19.4056 10.3328 19.9096 10.7776ZM11.9043 12.9272C12.2156 13.1644 12.4379 13.9056 12.3194 14.2614C12.2749 14.3948 11.415 15.3436 10.4218 16.3665C9.4137 17.3746 8.59834 18.2937 8.59834 18.3975C8.59834 18.4864 9.39888 19.3611 10.3625 20.3247C11.3261 21.2883 12.1859 22.2667 12.2749 22.5039C12.4528 23.008 12.1859 23.764 11.7857 23.9271C10.9999 24.2236 10.8072 24.0902 8.25737 21.4662C5.01076 18.1306 4.99593 18.6199 8.31667 15.225C10.407 13.0902 10.8072 12.7493 11.2075 12.7493C11.4447 12.7493 11.7708 12.8382 11.9043 12.9272ZM25.3799 15.2546C28.7007 18.5902 28.7007 18.1306 25.3948 21.4959C23.2452 23.6751 22.8449 24.0161 22.4446 24.0161C21.9702 24.0161 21.4217 23.6158 21.2735 23.1414C21.1252 22.667 21.5255 22.1037 23.3341 20.3099C24.2829 19.3759 25.0538 18.5161 25.0538 18.4123C25.0538 18.2937 24.2236 17.3598 23.2304 16.3369C22.2223 15.2991 21.3476 14.3355 21.3031 14.1873C21.1845 13.8611 21.4366 13.1792 21.7479 12.9272C21.8813 12.8382 22.2074 12.7493 22.4446 12.7493C22.8301 12.7493 23.26 13.1051 25.3799 15.2546Z" fill="white"/>
<path d="M44.4 14.4393C43.125 14.9136 42.5765 16.3368 43.3029 17.2559C43.6291 17.671 44.5927 18.2344 44.993 18.2344C45.3636 18.2344 45.9566 18.6939 45.9566 18.9608C45.9566 19.0942 45.8824 19.2869 45.7787 19.3907C45.5267 19.6427 44.5927 19.6131 44.2369 19.3462C43.8515 19.0497 43.5253 19.0646 43.2436 19.3907C42.8582 19.8058 42.9472 20.1171 43.5401 20.5322C44.0294 20.8584 44.2517 20.9028 45.3191 20.9028C46.5199 20.9028 46.5644 20.888 47.1426 20.3691C47.6911 19.8651 47.7355 19.7762 47.7355 19.0349C47.7355 18.3678 47.6762 18.1751 47.3353 17.8193C47.0981 17.5821 46.6237 17.2708 46.2531 17.1374C44.7113 16.5444 44.4444 16.233 45.1116 15.7883C45.4525 15.5808 45.5267 15.5808 46.1048 15.8031C46.7126 16.0551 46.7275 16.0551 47.0981 15.6697C47.5576 15.225 47.4835 14.9433 46.8164 14.6023C46.1196 14.2614 45.0967 14.1872 44.4 14.4393Z" fill="white"/>
<path d="M96.9533 14.3358C95.6487 14.7805 95.3226 15.166 95.3226 16.3223C95.3226 17.1228 95.3374 17.1525 95.96 17.5972C96.301 17.8492 96.8643 18.1309 97.1905 18.2199C97.991 18.4422 98.3616 18.8425 98.1393 19.2576C97.9317 19.6579 97.0274 19.6727 96.3751 19.3021C95.9304 19.05 95.9156 19.05 95.5449 19.4355C95.0854 19.8951 95.1595 20.1915 95.8563 20.6066C96.5975 21.0366 98.4209 21.0366 99.1325 20.5918C100.022 20.0433 100.319 18.9907 99.8293 18.0716C99.6662 17.7455 99.3401 17.5083 98.7619 17.2562C97.3387 16.6336 97.1757 16.5298 97.1312 16.1889C97.0571 15.7293 97.6204 15.5366 98.2727 15.8034C98.9102 16.0703 98.8953 16.0703 99.3697 15.6404C99.681 15.3439 99.7403 15.1956 99.6366 14.9881C99.3845 14.5285 97.6501 14.0986 96.9533 14.3358Z" fill="white"/>
<path d="M166.111 14.3207C164.999 14.6023 164.125 15.1805 163.636 15.9958C163.369 16.4258 163.295 16.7371 163.309 17.6414C163.309 18.5902 163.369 18.8422 163.71 19.3907C163.932 19.7317 164.436 20.2209 164.822 20.4581C165.444 20.8584 165.637 20.9028 166.749 20.9028C168.498 20.9028 169.388 20.384 170.173 18.9015C170.944 17.4338 170.144 15.4473 168.424 14.6171C167.89 14.3651 166.615 14.2021 166.111 14.3207ZM167.861 16.1293C168.483 16.5444 168.691 16.915 168.706 17.6117C168.706 18.3975 168.379 18.9015 167.623 19.3018C166.912 19.6576 166.348 19.5834 165.652 19.0497C164.258 17.9824 164.985 15.8624 166.749 15.8624C167.179 15.8624 167.609 15.9662 167.861 16.1293Z" fill="white"/>
<path d="M54.2735 15.0026C54.1105 15.3584 53.8733 15.9365 53.7398 16.3072C53.5916 16.6778 53.4285 17.1077 53.3544 17.2708C52.7021 18.8422 52.0498 20.6656 52.1239 20.7694C52.2425 20.9621 53.5768 20.9325 53.7843 20.7249C53.8881 20.6212 53.9622 20.3988 53.9622 20.2357C53.9622 19.6279 54.4218 19.4055 55.5336 19.45L56.5417 19.4945L56.7641 20.0875C57.0457 20.8287 57.1495 20.9028 57.9204 20.9028C58.6172 20.9028 58.8099 20.7249 58.5875 20.2654C58.4096 19.8651 58.1576 19.198 57.446 17.3449C57.1643 16.574 56.853 15.8179 56.7789 15.6845C56.69 15.5363 56.6307 15.3139 56.6307 15.1953C56.6307 14.7209 56.0673 14.38 55.2964 14.38C54.57 14.38 54.5404 14.3948 54.2735 15.0026ZM55.7412 16.7667C55.7412 16.9298 55.8005 17.1966 55.8894 17.3449C56.0673 17.6859 55.756 17.9824 55.2668 17.9082C54.8072 17.8489 54.7479 17.2263 55.1482 16.7074C55.4892 16.2775 55.7412 16.2923 55.7412 16.7667Z" fill="white"/>
<path d="M63.3616 14.5726C63.332 14.6763 63.3172 16.1292 63.332 17.7895L63.3765 20.8286L64.1622 20.8731C65.022 20.9176 64.9775 20.9917 64.9331 19.613C64.9034 18.5901 65.0517 17.493 65.2147 17.493C65.274 17.493 65.6891 17.9674 66.1339 18.5308C68.1204 21.1251 67.898 20.9176 68.6392 20.8731L69.3064 20.8286L69.3508 17.6858L69.3805 14.5281L69.0247 14.4391C68.832 14.3947 68.4762 14.3798 68.2538 14.4095L67.8239 14.454L67.7794 16.0106C67.7646 16.8704 67.6756 17.6265 67.6015 17.7006C67.4384 17.8637 67.1419 17.5523 65.9115 15.9809C65.363 15.2693 64.7996 14.617 64.6366 14.5281C64.2511 14.3205 63.4506 14.3502 63.3616 14.5726Z" fill="white"/>
<path d="M74.7463 14.5578C74.6128 14.6913 74.5684 15.5956 74.5684 17.7303C74.5684 20.3247 74.598 20.7398 74.8056 20.8139C74.939 20.8584 75.5913 20.9028 76.2732 20.9028C78.8972 20.9028 80.4983 19.6724 80.4983 17.671C80.4983 16.1886 79.5346 14.9729 78.0225 14.5875C77.1034 14.3355 74.9835 14.3207 74.7463 14.5578ZM77.7409 16.07C79.253 16.6926 79.2381 18.5753 77.726 19.198C76.4956 19.7169 76.1991 19.4055 76.1991 17.6414C76.1991 15.8921 76.5252 15.5659 77.7409 16.07Z" fill="white"/>
<path d="M85.598 14.5726C85.5683 14.6764 85.5535 16.1292 85.5683 17.7895L85.6128 20.8286H87.9847H90.3567V20.1615V19.4944L88.9187 19.4499C87.4511 19.4054 87.036 19.2424 87.2287 18.7532C87.288 18.5901 87.5548 18.5308 88.3554 18.5308C89.319 18.5308 89.4079 18.5011 89.571 18.1602C89.6896 17.8785 89.6896 17.7006 89.571 17.4189C89.4227 17.0928 89.3041 17.0631 88.3257 17.0187C87.3176 16.9742 87.2435 16.9445 87.199 16.6332C87.1101 15.9958 87.3918 15.8623 88.8742 15.8623C90.3419 15.8623 90.4308 15.8179 90.4308 15.0618C90.4308 14.4392 90.1936 14.3799 87.881 14.3799C86.2354 14.3799 85.6573 14.4243 85.598 14.5726Z" fill="white"/>
<path d="M105.034 14.5132C104.886 14.7652 104.93 20.6358 105.078 20.7841C105.152 20.8582 105.508 20.9027 105.864 20.873L106.516 20.8286L106.561 19.7167C106.605 18.3973 106.753 18.2342 107.85 18.2342C108.948 18.2342 109.096 18.3973 109.14 19.7167L109.185 20.8286L109.822 20.873C110.178 20.9027 110.549 20.8582 110.638 20.7693C110.771 20.6655 110.801 19.8057 110.741 17.5375L110.667 14.4539L110.074 14.4095C109.303 14.3502 109.111 14.617 109.111 15.803C109.111 16.8555 109.051 16.9 107.91 16.9C106.739 16.9 106.59 16.7518 106.59 15.6696C106.59 15.1359 106.516 14.6615 106.412 14.5577C106.205 14.3502 105.167 14.3205 105.034 14.5132Z" fill="white"/>
<path d="M122.067 14.5726C122.037 14.6764 122.022 16.1292 122.037 17.7895L122.082 20.8286H123.638C125.046 20.8286 125.269 20.7841 126.055 20.3987C127.255 19.8205 127.789 18.9755 127.789 17.6709C127.789 15.5214 126.247 14.3799 123.327 14.3799C122.511 14.3799 122.126 14.4392 122.067 14.5726ZM125.017 16.0699C125.788 16.396 126.084 16.8259 126.084 17.6413C126.084 18.5308 125.684 19.0052 124.735 19.272C123.742 19.5537 123.638 19.3906 123.638 17.6561C123.638 15.8179 123.861 15.5807 125.017 16.0699Z" fill="white"/>
<path d="M132.829 14.6765C132.725 14.8544 132.696 16.0404 132.711 17.8934L132.755 20.8287L134.979 20.8732C137.751 20.9177 137.87 20.9029 137.87 20.2506C137.87 19.9837 137.781 19.6872 137.677 19.5983C137.573 19.5093 136.817 19.4056 136.002 19.3907C134.549 19.3463 134.534 19.3463 134.534 18.9757C134.534 18.6199 134.579 18.605 135.572 18.5606C136.728 18.5161 136.98 18.3678 136.98 17.7897C136.98 17.2115 136.728 17.0633 135.572 17.0188C134.549 16.9743 134.534 16.9743 134.49 16.5444C134.46 16.3072 134.519 16.07 134.638 15.9959C134.742 15.9218 135.438 15.8625 136.18 15.8625C137.632 15.8625 137.721 15.818 137.721 15.0619C137.721 14.4393 137.484 14.38 135.172 14.38C133.155 14.38 132.977 14.3948 132.829 14.6765Z" fill="white"/>
<path d="M142.169 14.632C142.169 14.7802 142.302 15.2694 142.48 15.7142C142.643 16.1589 142.836 16.6926 142.91 16.9002C143.251 17.9082 143.948 19.8503 144.155 20.3395C144.393 20.888 144.422 20.9028 145.178 20.9028C145.593 20.9028 146.038 20.8435 146.127 20.7842C146.231 20.7249 146.483 20.1764 146.676 19.5686C146.883 18.9608 147.18 18.0861 147.358 17.6414C148.084 15.729 148.41 14.6764 148.321 14.5282C148.188 14.3207 147.165 14.3355 146.883 14.5578C146.676 14.7357 146.438 15.4029 145.771 17.7155C145.386 18.9904 145.43 18.9311 145.134 18.5753C144.986 18.3826 144.793 17.9082 144.689 17.5228C144.6 17.1225 144.348 16.2627 144.126 15.6252L143.726 14.4541L142.955 14.4096C142.273 14.3651 142.169 14.3948 142.169 14.632Z" fill="white"/>
<path d="M153.2 14.5725C153.17 14.6763 153.155 16.1291 153.17 17.7895L153.214 20.8285H153.956H154.697L154.771 19.9983C154.845 19.1682 155.201 18.5307 155.571 18.5307C155.66 18.5307 156.09 19.0644 156.535 19.7315L157.35 20.9175L158.166 20.873C159.055 20.8285 159.144 20.7099 158.729 20.1466C158.581 19.9539 158.062 19.1682 157.573 18.4121L156.683 17.0482L157.736 15.8326C158.299 15.1803 158.774 14.5725 158.774 14.5132C158.774 14.4391 158.433 14.3798 158.018 14.3798C157.336 14.3798 157.202 14.4391 156.713 14.9283C156.416 15.2396 155.957 15.7437 155.705 16.0698C155.038 16.9 154.771 16.7369 154.771 15.5065C154.771 14.4687 154.697 14.3798 153.793 14.3798C153.511 14.3798 153.244 14.4687 153.2 14.5725Z" fill="white"/>
<path d="M175.035 14.4836C174.976 14.5281 174.932 14.8691 174.932 15.2249V15.8623H175.569C176.666 15.8623 176.696 15.9216 176.74 18.5308L176.785 20.8286H177.526H178.267L178.312 18.5456C178.327 17.1669 178.415 16.1736 178.504 16.0551C178.608 15.9513 178.979 15.8623 179.394 15.8623C180.046 15.8623 180.12 15.8179 180.209 15.4769C180.269 15.2693 180.239 14.9432 180.135 14.7356C179.972 14.3799 179.972 14.3799 177.556 14.3799C176.221 14.3799 175.08 14.4243 175.035 14.4836Z" fill="white"/>
<path d="M186.688 14.5577C186.614 14.6614 186.436 15.0469 186.288 15.4175C186.14 15.7881 185.932 16.2773 185.814 16.5294C185.71 16.7666 185.414 17.5374 185.161 18.2342C184.909 18.931 184.598 19.7315 184.465 20.0428C184.183 20.7248 184.287 20.9027 185.013 20.9027C185.725 20.9027 186.051 20.7841 186.051 20.5024C186.051 20.3838 186.155 20.1021 186.273 19.8501C186.511 19.4202 186.525 19.4054 187.578 19.4498L188.645 19.4943L189.001 20.2059L189.357 20.9175L190.113 20.873C190.676 20.8434 190.869 20.7692 190.839 20.6062C190.825 20.4134 189.653 17.2706 189.327 16.5294C189.253 16.3663 189.046 15.8622 188.868 15.4175C188.69 14.9728 188.453 14.5577 188.364 14.4984C188.097 14.3057 186.837 14.365 186.688 14.5577ZM187.993 16.9593C188.156 17.4337 188.186 17.6709 188.082 17.7746C187.874 17.9822 187.133 17.9822 187.015 17.7895C186.896 17.5819 187.415 16.307 187.608 16.307C187.697 16.307 187.86 16.6035 187.993 16.9593Z" fill="white"/>
</svg>
