<svg width="787" height="145" viewBox="0 0 787 145" fill="none" xmlns="http://www.w3.org/2000/svg">
<path d="M1.4407 0.387159C0.682732 0.398678 0.369362 0.778967 0.344152 1.5366C0.143156 7.57722 0 37.3257 0 72.6095V143.155C0 143.943 0.545275 144.626 1.31366 144.801V144.801C2.08991 144.98 179.075 145.04 394.694 144.98L778.725 144.805C783.134 144.803 786.71 141.233 786.721 136.824L786.881 72.3706L786.987 8.0133C786.994 3.58987 783.41 9.15527e-05 778.987 9.15527e-05H393.918C187.137 9.15527e-05 16.1284 0.163936 1.4407 0.387159ZM776.55 10.8676C776.73 11.6439 776.789 39.6486 776.73 73.1469L776.574 126.076C776.561 130.485 772.983 134.053 768.574 134.053H463.064H157.554C153.145 134.053 149.567 130.485 149.555 126.076L149.399 72.6095C149.339 28.0646 149.458 10.9273 149.936 10.3899C150.473 9.73309 202.243 9.55396 463.422 9.55396H774.905C775.693 9.55396 776.376 10.0992 776.55 10.8676V10.8676ZM80.1928 43.4105C82.1633 45.2615 81.6856 48.1277 76.9684 61.8017C76.6101 62.7571 75.7741 65.3247 75.1173 67.4743C74.4008 69.6239 73.1468 73.5052 72.2511 76.1325C71.3555 78.7598 68.9073 85.9849 66.8771 92.2546C64.8469 98.4646 62.6973 103.898 62.1599 104.316C61.6225 104.734 60.1894 105.093 58.9951 105.093C57.3232 105.093 56.547 104.734 55.5319 103.48C54.1585 101.689 54.1585 101.032 55.7707 95.8373C56.6067 93.0906 57.4426 90.4633 61.2045 79.4166C61.921 77.267 63.5332 72.3109 64.7872 68.37C66.0411 64.429 67.3548 60.2492 67.8325 59.1147C68.2505 57.9801 69.0864 55.532 69.6238 53.7406C70.1612 51.9493 70.9972 49.5608 71.4152 48.486C71.8929 47.4112 72.2511 46.1572 72.2511 45.7392C72.2511 45.2615 73.0871 44.1867 74.1619 43.2911C76.1921 41.5594 78.1626 41.6191 80.1928 43.4105ZM47.9485 52.0687C49.2024 53.0241 50.0981 56.0096 49.6204 57.4427C49.4413 57.9801 45.978 61.8017 41.9773 65.9218C37.9169 69.9822 34.6328 73.6843 34.6328 74.1023C34.6328 74.4606 37.8572 77.9835 41.7385 81.8648C45.6197 85.7461 49.083 89.687 49.4413 90.6424C50.1578 92.6726 49.083 95.7179 47.4708 96.3747C44.3061 97.569 43.5298 97.0316 33.2594 86.4626C20.1825 73.0275 20.1228 74.998 33.4983 61.324C41.9176 52.7255 43.5298 51.3521 45.142 51.3521C46.0974 51.3521 47.4111 51.7104 47.9485 52.0687ZM102.226 61.4434C115.602 74.8785 115.602 73.0275 102.286 86.582C93.6279 95.3596 92.0157 96.733 90.4035 96.733C88.4927 96.733 86.2834 95.1208 85.6863 93.21C85.0891 91.2992 86.7014 89.0302 93.9862 81.8051C97.8077 78.0433 100.913 74.58 100.913 74.162C100.913 73.6843 97.5689 69.9225 93.5682 65.8024C89.5078 61.6225 85.9848 57.7413 85.8057 57.1442C85.328 55.8305 86.3431 53.0838 87.597 52.0687C88.1344 51.7104 89.4481 51.3521 90.4035 51.3521C91.956 51.3521 93.6876 52.7852 102.226 61.4434Z" fill="white"/>
<path d="M178.837 58.1596C173.702 60.0703 171.492 65.8026 174.418 69.5048C175.732 71.1767 179.613 73.4457 181.225 73.4457C182.718 73.4457 185.106 75.2968 185.106 76.3716C185.106 76.909 184.808 77.6853 184.39 78.1033C183.375 79.1184 179.613 78.9989 178.18 77.9241C176.627 76.7299 175.314 76.7896 174.179 78.1033C172.627 79.7752 172.985 81.0291 175.373 82.7011C177.344 84.0147 178.24 84.1938 182.539 84.1938C187.376 84.1938 187.555 84.1341 189.883 82.0442C192.093 80.014 192.272 79.6558 192.272 76.6702C192.272 73.9831 192.033 73.2069 190.66 71.7738C189.704 70.8184 187.793 69.5645 186.301 69.0271C180.091 66.6386 179.016 65.3847 181.703 63.5933C183.076 62.7574 183.375 62.7574 185.704 63.653C188.152 64.6681 188.211 64.6681 189.704 63.1156C191.555 61.3243 191.257 60.1898 188.57 58.8164C185.763 57.443 181.643 57.1445 178.837 58.1596Z" fill="white"/>
<path d="M390.514 57.7411C385.26 59.5325 383.946 61.085 383.946 65.7425C383.946 68.9669 384.006 69.0863 386.514 70.8777C387.887 71.8928 390.156 73.0273 391.47 73.3856C394.694 74.2813 396.187 75.8935 395.291 77.5654C394.455 79.1776 390.813 79.2373 388.186 77.7445C386.394 76.7294 386.334 76.7294 384.842 78.2819C382.991 80.133 383.289 81.3272 386.096 82.9992C389.081 84.7308 396.426 84.7308 399.292 82.9395C402.875 80.7301 404.069 76.4906 402.098 72.7885C401.442 71.4748 400.128 70.5194 397.799 69.5043C392.067 66.9964 391.41 66.5785 391.231 65.2051C390.932 63.354 393.201 62.5778 395.829 63.6526C398.396 64.7274 398.337 64.7274 400.247 62.9958C401.501 61.8015 401.74 61.2044 401.322 60.3684C400.307 58.5174 393.321 56.7857 390.514 57.7411Z" fill="white"/>
<path d="M669.069 57.6819C664.591 58.8164 661.068 61.1451 659.097 64.4293C658.022 66.1609 657.724 67.4149 657.784 71.0573C657.784 74.8788 658.022 75.8939 659.396 78.1033C660.291 79.4766 662.322 81.4471 663.874 82.4025C666.382 84.0147 667.158 84.1938 671.637 84.1938C678.683 84.1938 682.265 82.1039 685.43 76.1328C688.535 70.2213 685.311 62.2199 678.384 58.8761C676.235 57.861 671.099 57.2042 669.069 57.6819ZM676.115 64.9667C678.623 66.6386 679.459 68.1314 679.519 70.9379C679.519 74.1026 678.205 76.1328 675.16 77.745C672.294 79.1781 670.025 78.8795 667.218 76.7299C661.605 72.4306 664.531 63.8919 671.637 63.8919C673.368 63.8919 675.1 64.3099 676.115 64.9667Z" fill="white"/>
<path d="M218.604 60.4286C217.947 61.8617 216.992 64.1904 216.455 65.6832C215.858 67.176 215.201 68.9077 214.902 69.5645C212.275 75.8939 209.648 83.2385 209.946 83.6564C210.424 84.4327 215.798 84.3133 216.634 83.4773C217.052 83.0593 217.35 82.1637 217.35 81.5068C217.35 79.0586 219.201 78.163 223.68 78.3421L225.192 78.4088C226.737 78.477 228.093 79.4613 228.636 80.9097C229.77 83.8953 230.188 84.1938 233.293 84.1938C236.1 84.1938 236.876 83.4773 235.98 81.6262C235.264 80.014 234.249 77.327 231.383 69.863C230.248 66.758 228.994 63.7127 228.696 63.1753C228.337 62.5782 228.098 61.6825 228.098 61.2048C228.098 59.2941 225.829 57.9207 222.724 57.9207C219.799 57.9207 219.679 57.9804 218.604 60.4286ZM224.516 67.5343C224.516 68.1911 224.755 69.2659 225.113 69.863C225.829 71.2364 224.575 72.4306 222.605 72.1321C220.754 71.8932 220.515 69.3853 222.127 67.2954C223.501 65.5638 224.516 65.6235 224.516 67.5343Z" fill="white"/>
<path d="M255.208 58.6967C255.088 59.1147 255.029 64.9665 255.088 71.6542L255.221 80.7256C255.247 82.5114 256.649 83.9733 258.432 84.0742C261.895 84.2533 261.716 84.5519 261.537 78.9987C261.418 74.8786 262.015 70.4599 262.672 70.4599C262.911 70.4599 264.583 72.3707 266.374 74.6397C274.375 85.0893 273.48 84.2533 276.465 84.0742C277.983 83.973 279.169 82.7234 279.19 81.2023L279.331 71.2362L279.437 59.9947C279.445 59.1284 278.858 58.3694 278.018 58.1593C277.241 57.9802 275.808 57.9205 274.913 58.0399C273.922 58.1424 273.16 58.9632 273.131 59.9592L273.002 64.4888C272.942 67.952 272.584 70.9973 272.285 71.2959C271.629 71.9527 270.434 70.6988 265.478 64.3693C263.269 61.5032 261 58.8759 260.343 58.5176C258.79 57.6816 255.566 57.8011 255.208 58.6967Z" fill="white"/>
<path d="M301.066 58.6372C300.529 59.1747 300.35 62.8171 300.35 71.4155C300.35 81.8651 300.469 83.537 301.305 83.8356C301.842 84.0147 304.47 84.1938 307.216 84.1938C317.785 84.1938 324.234 79.2378 324.234 71.1767C324.234 65.2055 320.353 60.3092 314.262 58.7567C310.56 57.7416 302.022 57.6819 301.066 58.6372ZM313.128 64.7278C319.219 67.2357 319.159 74.8191 313.068 77.327C308.112 79.4169 306.918 78.163 306.918 71.0573C306.918 64.0113 308.232 62.6976 313.128 64.7278Z" fill="white"/>
<path d="M344.775 58.6967C344.656 59.1147 344.596 64.9664 344.656 71.6541L344.72 76.0121C344.784 80.3842 348.346 83.895 352.719 83.895H354.389H361.256C362.74 83.895 363.943 82.692 363.943 81.208C363.943 79.7107 362.753 78.4842 361.257 78.4379L358.151 78.3418C352.239 78.1627 350.567 77.5059 351.343 75.5354C351.582 74.8786 352.657 74.6397 355.882 74.6397C359.763 74.6397 360.121 74.5203 360.778 73.1469C361.256 72.0124 361.256 71.2959 360.778 70.1613C360.181 68.8477 359.703 68.7283 355.762 68.5491C351.702 68.37 351.403 68.2506 351.224 66.9966C350.866 64.429 352 63.8916 357.971 63.8916C363.883 63.8916 364.241 63.7125 364.241 60.6672C364.241 58.1593 363.286 57.9204 353.971 57.9204C347.343 57.9204 345.014 58.0996 344.775 58.6967Z" fill="white"/>
<path d="M423.057 58.4581C422.46 59.4732 422.639 83.119 423.236 83.7161C423.535 84.0147 424.968 84.1938 426.401 84.0744C427.896 83.9725 429.074 82.761 429.134 81.264L429.207 79.4169C429.387 74.1026 429.984 73.4457 434.402 73.4457C438.821 73.4457 439.418 74.1026 439.597 79.4169L439.674 81.3235C439.732 82.7872 440.883 83.9725 442.344 84.0744C443.777 84.1938 445.27 84.0147 445.628 83.6564C446.166 83.2384 446.285 79.7752 446.046 70.6393L445.805 60.6137C445.772 59.2547 444.715 58.1418 443.359 58.0401C440.254 57.8013 439.478 58.8761 439.478 63.653C439.478 67.8925 439.239 68.0717 434.641 68.0717C429.924 68.0717 429.327 67.4746 429.327 63.1156C429.327 60.966 429.028 59.0552 428.61 58.6372C427.774 57.8013 423.595 57.6818 423.057 58.4581Z" fill="white"/>
<path d="M491.666 58.6967C491.547 59.1147 491.487 64.9664 491.547 71.6541L491.634 77.626C491.685 81.103 494.518 83.895 497.996 83.895C503.668 83.895 504.564 83.7159 507.729 82.1634C512.565 79.8346 514.715 76.4311 514.715 71.1764C514.715 62.5182 508.505 57.9204 496.742 57.9204C493.458 57.9204 491.905 58.1593 491.666 58.6967ZM503.549 64.7276C506.654 66.0412 507.848 67.7729 507.848 71.057C507.848 74.6397 506.236 76.5505 502.414 77.6253C498.414 78.7598 497.996 78.103 497.996 71.1167C497.996 63.7125 498.891 62.7571 503.549 64.7276Z" fill="white"/>
<path d="M535.017 59.1145C534.599 59.831 534.479 64.608 534.539 72.0719L534.601 76.1721C534.666 80.4805 538.132 83.9631 542.44 84.0493L543.675 84.074C554.841 84.2531 555.318 84.1934 555.318 81.5661C555.318 80.4913 554.96 79.2971 554.542 78.9388C554.124 78.5805 551.079 78.1625 547.795 78.1028C541.943 77.9237 541.883 77.9237 541.883 76.4309C541.883 74.9978 542.063 74.9381 546.063 74.759C550.721 74.5798 551.736 73.9827 551.736 71.654C551.736 69.3252 550.721 68.7281 546.063 68.549C541.943 68.3698 541.883 68.3698 541.704 66.6382C541.585 65.6828 541.824 64.7274 542.301 64.4288C542.719 64.1303 545.526 63.8914 548.511 63.8914C554.363 63.8914 554.721 63.7123 554.721 60.667C554.721 58.1591 553.766 57.9203 544.451 57.9203C536.33 57.9203 535.614 57.98 535.017 59.1145Z" fill="white"/>
<path d="M572.635 58.9358C572.635 59.5329 573.172 61.5034 573.889 63.2948C574.546 65.0861 575.322 67.2357 575.62 68.0717C576.994 72.1321 579.8 79.9543 580.636 81.9248C581.592 84.1341 581.711 84.1938 584.756 84.1938C586.428 84.1938 588.22 83.955 588.578 83.7162C588.996 83.4773 590.011 81.268 590.787 78.8198C591.623 76.3716 592.817 72.8486 593.534 71.0573C596.46 63.3545 597.773 59.1149 597.415 58.5178C596.878 57.6819 592.758 57.7416 591.623 58.6372C590.787 59.3538 589.832 62.0408 587.145 71.3558C585.592 76.491 585.771 76.2522 584.577 74.8191C583.98 74.0429 583.204 72.1321 582.786 70.5796C582.427 68.9674 581.412 65.5041 580.517 62.9365L579.91 61.1623C579.302 59.3827 577.677 58.1485 575.799 58.0401C573.053 57.861 572.635 57.9804 572.635 58.9358Z" fill="white"/>
<path d="M617.061 58.6968C616.941 59.1148 616.882 64.9665 616.941 71.6543L617.077 80.9099C617.101 82.5656 618.45 83.8951 620.106 83.8951C621.796 83.8951 623.207 82.6049 623.357 80.9214L623.39 80.5513C623.689 77.2074 625.122 74.6398 626.615 74.6398C626.973 74.6398 628.705 76.7895 630.496 79.4765L631.917 81.5431C633.074 83.2265 635.024 84.1855 637.064 84.0743C640.647 83.8951 641.005 83.4175 639.333 81.1484C638.736 80.3722 636.646 77.2074 634.676 74.1621L634.386 73.7181C632.437 70.7287 632.703 66.8094 635.039 64.1113L635.333 63.7723C637.602 61.145 639.512 58.6968 639.512 58.458C639.512 58.1594 638.139 57.9206 636.467 57.9206C633.72 57.9206 633.183 58.1594 631.212 60.1299C630.018 61.3838 628.167 63.414 627.152 64.7277C624.465 68.0716 623.39 67.4147 623.39 62.4587C623.39 58.2788 623.092 57.9206 619.449 57.9206C618.315 57.9206 617.24 58.2788 617.061 58.6968Z" fill="white"/>
<path d="M706.136 58.1536C705.381 58.2158 704.807 58.6721 704.709 59.4238C704.64 59.9593 704.598 60.6347 704.598 61.324C704.598 62.7421 705.748 63.8916 707.166 63.8916C711.584 63.8916 711.704 64.1305 711.883 74.6397L712.004 80.91C712.036 82.5678 713.39 83.895 715.048 83.895C716.706 83.895 718.059 82.5679 718.091 80.91L718.212 74.6994C718.262 70.084 718.518 66.541 718.809 65.2018C718.889 64.8318 719.124 64.523 719.473 64.3771C720.145 64.0965 721.307 63.8916 722.571 63.8916C725.199 63.8916 725.497 63.7125 725.856 62.3391C726.094 61.5031 725.975 60.1895 725.557 59.3535C724.9 57.9204 724.9 57.9204 715.167 57.9204C711.306 57.9204 707.845 58.0129 706.136 58.1536Z" fill="white"/>
<path d="M751.95 58.6371C751.651 59.0551 750.934 60.6076 750.337 62.1004C749.74 63.5932 748.904 65.5637 748.427 66.5788C748.009 67.5341 746.814 70.6392 745.799 73.4456C744.784 76.2521 743.53 79.4765 742.993 80.7304C741.858 83.4772 742.276 84.1937 745.202 84.1937C748.068 84.1937 749.382 83.716 749.382 82.5815C749.382 82.1038 749.8 80.9693 750.278 79.9542C751.233 78.2225 751.293 78.1628 755.532 78.342L756.63 78.3877C758.605 78.47 760.38 79.6187 761.265 81.3873L761.333 81.5249C762.161 83.1802 763.895 84.183 765.743 84.0743C768.012 83.9549 768.788 83.6563 768.669 82.9995C768.609 82.2232 763.892 69.5643 762.578 66.5788C762.28 65.9219 761.444 63.8917 760.727 62.1004C760.011 60.309 759.055 58.6371 758.697 58.3983C757.622 57.622 752.547 57.8609 751.95 58.6371ZM757.204 68.3104C757.861 70.2212 757.98 71.1766 757.562 71.5945C756.726 72.4305 753.741 72.4305 753.263 71.6543C752.786 70.8183 754.875 65.6831 755.652 65.6831C756.01 65.6831 756.667 66.8773 757.204 68.3104Z" fill="white"/>
</svg>
