<svg width="142" height="142" viewBox="0 0 142 142" fill="none" xmlns="http://www.w3.org/2000/svg">
<rect x="16" y="27" width="109" height="87" fill="black"/>
<path d="M119.812 22.1875H22.1875C19.8337 22.1875 17.5763 23.1225 15.9119 24.7869C14.2475 26.4513 13.3125 28.7087 13.3125 31.0625V110.938C13.3125 113.291 14.2475 115.549 15.9119 117.213C17.5763 118.877 19.8337 119.812 22.1875 119.812H119.812C122.166 119.812 124.424 118.877 126.088 117.213C127.752 115.549 128.688 113.291 128.688 110.938V31.0625C128.688 28.7087 127.752 26.4513 126.088 24.7869C124.424 23.1225 122.166 22.1875 119.812 22.1875ZM51.475 80.7625C52.4165 81.4686 53.039 82.5199 53.2054 83.6849C53.3718 84.85 53.0686 86.0335 52.3625 86.975C51.6564 87.9165 50.6051 88.539 49.4401 88.7054C48.275 88.8718 47.0915 88.5686 46.15 87.8625L28.4 74.55C27.8489 74.1367 27.4016 73.6007 27.0935 72.9845C26.7854 72.3683 26.625 71.6889 26.625 71C26.625 70.3111 26.7854 69.6317 27.0935 69.0155C27.4016 68.3993 27.8489 67.8633 28.4 67.45L46.15 54.1375C47.0915 53.4314 48.275 53.1282 49.4401 53.2946C50.6051 53.461 51.6564 54.0835 52.3625 55.025C53.0686 55.9665 53.3718 57.15 53.2054 58.3151C53.039 59.4801 52.4165 60.5314 51.475 61.2375L38.4565 71L51.475 80.7625ZM84.1405 41.1578L66.3905 103.283C66.2393 103.853 65.9758 104.387 65.6156 104.855C65.2553 105.322 64.8055 105.712 64.2925 106.004C63.7795 106.295 63.2135 106.481 62.6277 106.551C62.0419 106.621 61.4481 106.574 60.8809 106.411C60.3137 106.249 59.7845 105.975 59.3244 105.606C58.8642 105.237 58.4823 104.78 58.201 104.261C57.9196 103.743 57.7445 103.173 57.6859 102.586C57.6272 101.999 57.6863 101.406 57.8595 100.842L75.6095 38.7172C75.9506 37.6063 76.7139 36.6737 77.7353 36.1195C78.7567 35.5654 79.9547 35.434 81.072 35.7536C82.1892 36.0732 83.1365 36.8183 83.7102 37.8288C84.284 38.8394 84.4385 40.0346 84.1405 41.1578ZM113.6 74.55L95.85 87.8625C94.9085 88.5686 93.725 88.8718 92.5599 88.7054C91.3949 88.539 90.3436 87.9165 89.6375 86.975C88.9314 86.0335 88.6282 84.85 88.7946 83.6849C88.961 82.5199 89.5835 81.4686 90.525 80.7625L103.544 71L90.525 61.2375C90.0588 60.8879 89.6661 60.4498 89.3691 59.9484C89.0722 59.4469 88.877 58.8919 88.7946 58.3151C88.7122 57.7382 88.7442 57.1507 88.8888 56.5862C89.0335 56.0217 89.2879 55.4912 89.6375 55.025C89.9871 54.5588 90.4252 54.166 90.9266 53.8691C91.4281 53.5722 91.9831 53.377 92.5599 53.2946C93.1368 53.2122 93.7243 53.2442 94.2888 53.3888C94.8533 53.5335 95.3838 53.7879 95.85 54.1375L113.6 67.45C114.151 67.8633 114.598 68.3993 114.907 69.0155C115.215 69.6317 115.375 70.3111 115.375 71C115.375 71.6889 115.215 72.3683 114.907 72.9845C114.598 73.6007 114.151 74.1367 113.6 74.55Z" fill="#F6F6F6"/>
</svg>
