<svg preserveAspectRatio="xMidYMid meet" viewBox="0 10.11467889908257 1336.5420000000001 267.0275229357798" xmlns="http://www.w3.org/2000/svg" version="1.0" style="max-height: 500px" width="1336.5420000000001" height="267.0275229357798">
<metadata>
Created by potrace 1.10, written by Peter Selinger 2001-2011
</metadata>
<g stroke="none" fill="#000000" transform="translate(0.000000,441.000000) scale(0.100000,-0.100000)">
<path d="M77 4183 c-4 -3 -7 -548 -7 -1209 l0 -1204 22 -5 c13 -3 2977 -4&#10;6588 -3 l6565 3 3 1213 2 1212 -6583 0 c-3621 0 -6587 -3 -6590 -7z m12998&#10;-175 c3 -13 4 -482 3 -1043 l-3 -1020 -5250 0 -5250 0 -3 1029 c-1 746 1 1033&#10;9 1042 9 11 876 14 5250 14 l5239 0 5 -22z m-11662 -545 c33 -31 25 -79 -54&#10;-308 -6 -16 -20 -59 -31 -95 -12 -36 -33 -101 -48 -145 -15 -44 -56 -165 -90&#10;-270 -34 -104 -70 -195 -79 -202 -9 -7 -33 -13 -53 -13 -28 0 -41 6 -58 27&#10;-23 30 -23 41 4 128 14 46 28 90 91 275 12 36 39 119 60 185 21 66 43 136 51&#10;155 7 19 21 60 30 90 9 30 23 70 30 88 8 18 14 39 14 46 0 8 14 26 32 41 34&#10;29 67 28 101 -2z m-540 -145 c21 -16 36 -66 28 -90 -3 -9 -61 -73 -128 -142&#10;-68 -68 -123 -130 -123 -137 0 -6 54 -65 119 -130 65 -65 123 -131 129 -147&#10;12 -34 -6 -85 -33 -96 -53 -20 -66 -11 -238 166 -219 225 -220 192 4 421 141&#10;144 168 167 195 167 16 0 38 -6 47 -12z m909 -157 c224 -225 224 -194 1 -421&#10;-145 -147 -172 -170 -199 -170 -32 0 -69 27 -79 59 -10 32 17 70 139 191 64&#10;63 116 121 116 128 0 8 -56 71 -123 140 -68 70 -127 135 -130 145 -8 22 9 68&#10;30 85 9 6 31 12 47 12 26 0 55 -24 198 -169z"/>
<path d="M3065 3216 c-86 -32 -123 -128 -74 -190 22 -28 87 -66 114 -66 25 0&#10;65 -31 65 -49 0 -9 -5 -22 -12 -29 -17 -17 -80 -15 -104 3 -26 20 -48 19 -67&#10;-3 -26 -28 -20 -49 20 -77 33 -22 48 -25 120 -25 81 0 84 1 123 36 37 34 40&#10;40 40 90 0 45 -4 58 -27 82 -16 16 -48 37 -73 46 -104 40 -122 61 -77 91 23&#10;14 28 14 67 -1 41 -17 42 -17 67 9 31 30 26 49 -19 72 -47 23 -116 28 -163 11z"/>
<path d="M6610 3223 c-88 -30 -110 -56 -110 -134 0 -54 1 -56 43 -86 23 -17&#10;61 -36 83 -42 54 -15 79 -42 64 -70 -14 -27 -75 -28 -119 -3 -30 17 -31 17&#10;-56 -9 -31 -31 -26 -51 21 -79 50 -29 173 -29 221 1 60 37 80 108 47 170 -11&#10;22 -33 38 -72 55 -96 42 -107 49 -110 72 -5 31 33 44 77 26 43 -18 42 -18 74&#10;11 21 20 25 30 18 44 -17 31 -134 60 -181 44z"/>
<path d="M11275 3224 c-75 -19 -134 -58 -167 -113 -18 -29 -23 -50 -22 -111 0&#10;-64 4 -81 27 -118 15 -23 49 -56 75 -72 42 -27 55 -30 130 -30 118 0 178 35&#10;231 135 52 99 -2 233 -118 289 -36 17 -122 28 -156 20z m118 -122 c42 -28 56&#10;-53 57 -100 0 -53 -22 -87 -73 -114 -48 -24 -86 -19 -133 17 -94 72 -45 215&#10;74 215 29 0 58 -7 75 -18z"/>
<path d="M3731 3178 c-11 -24 -27 -63 -36 -88 -10 -25 -21 -54 -26 -65 -44&#10;-106 -88 -229 -83 -236 8 -13 98 -11 112 3 7 7 12 22 12 33 0 41 31 56 106 53&#10;l68 -3 15 -40 c19 -50 26 -55 78 -55 47 0 60 12 45 43 -12 27 -29 72 -77 197&#10;-19 52 -40 103 -45 112 -6 10 -10 25 -10 33 0 32 -38 55 -90 55 -49 0 -51 -1&#10;-69 -42z m99 -119 c0 -11 4 -29 10 -39 12 -23 -9 -43 -42 -38 -31 4 -35 46 -8&#10;81 23 29 40 28 40 -4z"/>
<path d="M4344 3207 c-2 -7 -3 -105 -2 -217 l3 -205 53 -3 c58 -3 55 -8 52 85&#10;-2 69 8 143 19 143 4 0 32 -32 62 -70 134 -175 119 -161 169 -158 l45 3 3 212&#10;2 213 -24 6 c-13 3 -37 4 -52 2 l-29 -3 -3 -105 c-1 -58 -7 -109 -12 -114 -11&#10;-11 -31 10 -114 116 -37 48 -75 92 -86 98 -26 14 -80 12 -86 -3z"/>
<path d="M5112 3208 c-9 -9 -12 -70 -12 -214 0 -175 2 -203 16 -208 9 -3 53&#10;-6 99 -6 177 0 285 83 285 218 0 100 -65 182 -167 208 -62 17 -205 18 -221 2z&#10;m202 -102 c102 -42 101 -169 -1 -211 -83 -35 -103 -14 -103 105 0 118 22 140&#10;104 106z"/>
<path d="M5844 3207 c-2 -7 -3 -105 -2 -217 l3 -205 160 0 160 0 0 45 0 45&#10;-97 3 c-99 3 -127 14 -114 47 4 11 22 15 76 15 65 0 71 2 82 25 8 19 8 31 0&#10;50 -10 22 -18 24 -84 27 -68 3 -73 5 -76 26 -6 43 13 52 113 52 99 0 105 3&#10;105 54 0 42 -16 46 -172 46 -111 0 -150 -3 -154 -13z"/>
<path d="M7155 3211 c-10 -17 -7 -413 3 -423 5 -5 29 -8 53 -6 l44 3 3 75 c3&#10;89 13 100 87 100 74 0 84 -11 87 -100 l3 -75 43 -3 c24 -2 49 1 55 7 9 7 11&#10;65 7 218 l-5 208 -40 3 c-52 4 -65 -14 -65 -94 0 -71 -4 -74 -81 -74 -79 0&#10;-89 10 -89 83 0 36 -5 68 -12 75 -14 14 -84 16 -93 3z"/>
<path d="M8304 3207 c-2 -7 -3 -105 -2 -217 l3 -205 105 0 c95 0 110 3 163 29&#10;81 39 117 96 117 184 0 145 -104 222 -301 222 -55 0 -81 -4 -85 -13z m199&#10;-101 c52 -22 72 -51 72 -106 0 -60 -27 -92 -91 -110 -67 -19 -74 -8 -74 109 0&#10;124 15 140 93 107z"/>
<path d="M9030 3200 c-7 -12 -9 -92 -8 -217 l3 -198 150 -3 c187 -3 195 -2&#10;195 42 0 18 -6 38 -13 44 -7 6 -58 13 -113 14 -98 3 -99 3 -99 28 0 24 3 25&#10;70 28 78 3 95 13 95 52 0 39 -17 49 -95 52 -69 3 -70 3 -73 32 -2 16 2 32 10&#10;37 7 5 54 9 104 9 98 0 104 3 104 54 0 42 -16 46 -172 46 -136 0 -148 -1 -158&#10;-20z"/>
<path d="M9660 3203 c0 -10 9 -43 21 -73 11 -30 24 -66 29 -80 23 -68 70 -199&#10;84 -232 16 -37 18 -38 69 -38 28 0 58 4 64 8 7 4 24 41 37 82 14 41 34 100 46&#10;130 49 129 71 200 65 210 -9 14 -78 13 -97 -2 -14 -12 -30 -57 -75 -213 -26&#10;-86 -23 -82 -43 -58 -10 13 -23 45 -30 71 -6 27 -23 85 -38 128 l-27 79 -52 3&#10;c-46 3 -53 1 -53 -15z"/>
<path d="M10404 3207 c-2 -7 -3 -105 -2 -217 l3 -205 50 0 50 0 5 56 c5 56 29&#10;99 54 99 6 0 35 -36 65 -81 l55 -80 55 3 c60 3 66 11 38 49 -10 13 -45 66 -78&#10;117 l-60 92 71 82 c38 44 70 85 70 89 0 5 -23 9 -51 9 -46 0 -55 -4 -88 -37&#10;-20 -21 -51 -55 -68 -77 -45 -56 -63 -45 -63 38 0 70 -5 76 -66 76 -19 0 -37&#10;-6 -40 -13z"/>
<path d="M11877 3213 c-4 -3 -7 -26 -7 -50 l0 -43 43 0 c74 0 76 -4 79 -180&#10;l3 -155 50 0 50 0 3 154 c1 93 7 160 13 168 7 7 32 13 60 13 44 0 49 3 55 26&#10;4 14 2 36 -5 50 -11 24 -11 24 -174 24 -90 0 -167 -3 -170 -7z"/>
<path d="M12663 3208 c-5 -7 -17 -33 -27 -58 -10 -25 -24 -58 -32 -75 -7 -16&#10;-27 -68 -44 -115 -17 -47 -38 -101 -47 -122 -19 -46 -12 -58 37 -58 48 0 70 8&#10;70 27 0 8 7 27 15 44 16 29 17 30 88 27 l72 -3 24 -48 24 -48 51 3 c38 2 51 7&#10;49 18 -1 13 -80 225 -102 275 -5 11 -19 45 -31 75 -12 30 -28 58 -34 62 -18&#10;13 -103 9 -113 -4z m88 -162 c11 -32 13 -48 6 -55 -14 -14 -64 -14 -72 -1 -8&#10;14 27 100 40 100 6 0 17 -20 26 -44z"/>
</g>


</svg>