<?xml version="1.0" standalone="no"?>
<svg xmlns:xlink="http://www.w3.org/1999/xlink" id="wave" style="transform:rotate(0deg); transition: 0.3s" viewBox="0 0 1440 120" version="1.1" xmlns="http://www.w3.org/2000/svg"><defs><linearGradient id="sw-gradient-0" x1="0" x2="0" y1="1" y2="0"><stop stop-color="rgba(243, 106, 62, 1)" offset="0%"/><stop stop-color="rgba(255, 179, 11, 1)" offset="100%"/></linearGradient></defs><path style="transform:translate(0, 0px); opacity:1" fill="url(#sw-gradient-0)" d="M0,96L21.8,82C43.6,68,87,40,131,42C174.5,44,218,76,262,88C305.5,100,349,92,393,82C436.4,72,480,60,524,58C567.3,56,611,64,655,56C698.2,48,742,24,785,14C829.1,4,873,8,916,20C960,32,1004,52,1047,58C1090.9,64,1135,56,1178,56C1221.8,56,1265,64,1309,62C1352.7,60,1396,48,1440,52C1483.6,56,1527,76,1571,80C1614.5,84,1658,72,1702,64C1745.5,56,1789,52,1833,56C1876.4,60,1920,72,1964,76C2007.3,80,2051,76,2095,72C2138.2,68,2182,64,2225,58C2269.1,52,2313,44,2356,40C2400,36,2444,36,2487,30C2530.9,24,2575,12,2618,18C2661.8,24,2705,48,2749,50C2792.7,52,2836,32,2880,22C2923.6,12,2967,12,3011,28C3054.5,44,3098,76,3120,92L3141.8,108L3141.8,120L3120,120C3098.2,120,3055,120,3011,120C2967.3,120,2924,120,2880,120C2836.4,120,2793,120,2749,120C2705.5,120,2662,120,2618,120C2574.5,120,2531,120,2487,120C2443.6,120,2400,120,2356,120C2312.7,120,2269,120,2225,120C2181.8,120,2138,120,2095,120C2050.9,120,2007,120,1964,120C1920,120,1876,120,1833,120C1789.1,120,1745,120,1702,120C1658.2,120,1615,120,1571,120C1527.3,120,1484,120,1440,120C1396.4,120,1353,120,1309,120C1265.5,120,1222,120,1178,120C1134.5,120,1091,120,1047,120C1003.6,120,960,120,916,120C872.7,120,829,120,785,120C741.8,120,698,120,655,120C610.9,120,567,120,524,120C480,120,436,120,393,120C349.1,120,305,120,262,120C218.2,120,175,120,131,120C87.3,120,44,120,22,120L0,120Z"/></svg>